# This file uses centimeters as units for non-parametric coordinates.

v 419.885864 -342.631714 -136.429184
v 357.176270 -342.631714 -259.503723
v 259.503723 -342.631714 -357.176239
v 136.429169 -342.631714 -419.885803
v 0.000000 -342.631714 -441.494049
v -136.429169 -342.631714 -419.885773
v -259.503662 -342.631714 -357.176147
v -357.176117 -342.631714 -259.503632
v -419.885712 -342.631714 -136.429123
v -441.493927 -342.631714 0.000000
v -419.885712 -342.631714 136.429123
v -357.176086 -342.631714 259.503601
v -259.503601 -342.631714 357.176086
v -136.429123 -342.631714 419.885651
v -0.000013 -342.631714 441.493896
v 136.429092 -342.631714 419.885620
v 259.503571 -342.631714 357.176056
v 357.176025 -342.631714 259.503601
v 419.885590 -342.631714 136.429108
v 441.493835 -342.631714 0.000000
v 419.885864 342.631714 -136.429184
v 357.176270 342.631714 -259.503723
v 259.503723 342.631714 -357.176239
v 136.429169 342.631714 -419.885803
v 0.000000 342.631714 -441.494049
v -136.429169 342.631714 -419.885773
v -259.503662 342.631714 -357.176147
v -357.176117 342.631714 -259.503632
v -419.885712 342.631714 -136.429123
v -441.493927 342.631714 0.000000
v -419.885712 342.631714 136.429123
v -357.176086 342.631714 259.503601
v -259.503601 342.631714 357.176086
v -136.429123 342.631714 419.885651
v -0.000013 342.631714 441.493896
v 136.429092 342.631714 419.885620
v 259.503571 342.631714 357.176056
v 357.176025 342.631714 259.503601
v 419.885590 342.631714 136.429108
v 441.493835 342.631714 0.000000
v 0.000000 -342.631714 0.000000
v 0.000000 342.631714 0.000000
vt 0.965180 0.424001
vt 0.960878 0.415557
vt 0.954177 0.408856
vt 0.945733 0.404554
vt 0.936373 0.403071
vt 0.927012 0.404554
vt 0.918568 0.408856
vt 0.911867 0.415557
vt 0.907565 0.424001
vt 0.906082 0.433361
vt 0.907565 0.442722
vt 0.911867 0.451166
vt 0.918568 0.457867
vt 0.927012 0.462169
vt 0.936373 0.463652
vt 0.945733 0.462169
vt 0.954177 0.457867
vt 0.960878 0.451166
vt 0.965180 0.442722
vt 0.966663 0.433361
vt -1.016721 0.009886
vt -0.865049 0.009886
vt -0.713377 0.009886
vt -0.561705 0.009886
vt -0.410033 0.009886
vt -0.258361 0.009886
vt -0.106689 0.009886
vt 0.044984 0.009886
vt 0.196656 0.009886
vt 0.348328 0.009886
vt 0.500000 0.009886
vt 0.651672 0.009886
vt 0.803344 0.009886
vt 0.955016 0.009886
vt 1.106688 0.009886
vt 1.258360 0.009886
vt 1.410032 0.009886
vt 1.561705 0.009886
vt 1.713377 0.009886
vt 1.865049 0.009886
vt 2.016721 0.009886
vt -1.016721 0.991054
vt -0.865049 0.991054
vt -0.713377 0.991054
vt -0.561705 0.991054
vt -0.410033 0.991054
vt -0.258361 0.991054
vt -0.106689 0.991054
vt 0.044984 0.991054
vt 0.196656 0.991054
vt 0.348328 0.991054
vt 0.500000 0.991054
vt 0.651672 0.991054
vt 0.803344 0.991054
vt 0.955016 0.991054
vt 1.106688 0.991054
vt 1.258360 0.991054
vt 1.410032 0.991054
vt 1.561705 0.991054
vt 1.713377 0.991054
vt 1.865049 0.991054
vt 2.016721 0.991054
vt 0.965180 0.557278
vt 0.960878 0.548834
vt 0.954177 0.542133
vt 0.945733 0.537831
vt 0.936373 0.536348
vt 0.927012 0.537831
vt 0.918568 0.542133
vt 0.911867 0.548834
vt 0.907565 0.557278
vt 0.906082 0.566639
vt 0.907565 0.575999
vt 0.911867 0.584443
vt 0.918568 0.591144
vt 0.927012 0.595446
vt 0.936373 0.596929
vt 0.945733 0.595446
vt 0.954177 0.591144
vt 0.960878 0.584443
vt 0.965180 0.575999
vt 0.966663 0.566639
vt 0.936373 0.432150
vt 0.936373 0.565427
vn -0.951057 0.000000 0.309016
vn -0.951057 0.000000 0.309016
vn -0.809017 0.000000 0.587785
vn -0.809017 0.000000 0.587785
vn -0.587785 0.000000 0.809017
vn -0.587785 0.000000 0.809017
vn -0.309017 0.000000 0.951057
vn -0.309017 0.000000 0.951057
vn 0.000000 0.000000 1.000000
vn 0.000000 0.000000 1.000000
vn 0.309017 0.000000 0.951056
vn 0.309017 0.000000 0.951056
vn 0.587786 0.000000 0.809017
vn 0.587786 0.000000 0.809017
vn 0.809017 0.000000 0.587785
vn 0.809017 0.000000 0.587785
vn 0.951057 0.000000 0.309017
vn 0.951057 0.000000 0.309017
vn 1.000000 0.000000 0.000000
vn 1.000000 0.000000 0.000000
vn 0.951056 0.000000 -0.309017
vn 0.951056 0.000000 -0.309017
vn 0.809017 0.000000 -0.587785
vn 0.809017 0.000000 -0.587785
vn 0.587785 0.000000 -0.809017
vn 0.587785 0.000000 -0.809017
vn 0.309017 0.000000 -0.951057
vn 0.309017 0.000000 -0.951057
vn -0.000000 0.000000 -1.000000
vn -0.000000 0.000000 -1.000000
vn -0.309017 0.000000 -0.951057
vn -0.309017 0.000000 -0.951057
vn -0.587785 0.000000 -0.809017
vn -0.587785 0.000000 -0.809017
vn -0.809017 0.000000 -0.587785
vn -0.809017 0.000000 -0.587785
vn -0.951057 0.000000 -0.309017
vn -0.951057 0.000000 -0.309017
vn -1.000000 0.000000 -0.000001
vn -1.000000 0.000000 -0.000001
vn 0.000000 1.000000 0.000000
vn 0.000000 1.000000 -0.000000
vn 0.000000 1.000000 0.000000
vn 0.000000 1.000000 -0.000000
vn 0.000000 1.000000 -0.000000
vn 0.000000 1.000000 0.000000
vn 0.000000 1.000000 0.000000
vn 0.000000 1.000000 0.000000
vn 0.000000 1.000000 -0.000000
vn 0.000000 1.000000 0.000000
vn 0.000000 1.000000 0.000000
vn 0.000000 1.000000 -0.000000
vn 0.000000 1.000000 0.000000
vn 0.000000 1.000000 0.000000
vn 0.000000 1.000000 -0.000000
vn 0.000000 1.000000 -0.000000
vn 0.000000 1.000000 -0.000000
vn 0.000000 1.000000 -0.000000
vn 0.000000 1.000000 -0.000000
vn 0.000000 1.000000 -0.000000
vn 0.000000 1.000000 0.000000
vn 0.000000 -1.000000 0.000000
vn 0.000000 -1.000000 -0.000000
vn 0.000000 -1.000000 0.000000
vn 0.000000 -1.000000 -0.000000
vn 0.000000 -1.000000 -0.000000
vn 0.000000 -1.000000 0.000000
vn 0.000000 -1.000000 0.000000
vn 0.000000 -1.000000 0.000000
vn 0.000000 -1.000000 -0.000000
vn 0.000000 -1.000000 0.000000
vn 0.000000 -1.000000 0.000000
vn 0.000000 -1.000000 -0.000000
vn 0.000000 -1.000000 0.000000
vn 0.000000 -1.000000 0.000000
vn 0.000000 -1.000000 -0.000000
vn 0.000000 -1.000000 -0.000000
vn 0.000000 -1.000000 -0.000000
vn 0.000000 -1.000000 -0.000000
vn 0.000000 -1.000000 -0.000000
vn 0.000000 -1.000000 -0.000000
vn 0.000000 -1.000000 0.000000
g clouds
f 1/21/1 21/42/2 22/43/3 2/22/4
f 2/22/4 22/43/3 23/44/5 3/23/6
f 3/23/6 23/44/5 24/45/7 4/24/8
f 4/24/8 24/45/7 25/46/9 5/25/10
f 5/25/10 25/46/9 26/47/11 6/26/12
f 6/26/12 26/47/11 27/48/13 7/27/14
f 7/27/14 27/48/13 28/49/15 8/28/16
f 8/28/16 28/49/15 29/50/17 9/29/18
f 9/29/18 29/50/17 30/51/19 10/30/20
f 10/30/20 30/51/19 31/52/21 11/31/22
f 11/31/22 31/52/21 32/53/23 12/32/24
f 12/32/24 32/53/23 33/54/25 13/33/26
f 13/33/26 33/54/25 34/55/27 14/34/28
f 14/34/28 34/55/27 35/56/29 15/35/30
f 15/35/30 35/56/29 36/57/31 16/36/32
f 16/36/32 36/57/31 37/58/33 17/37/34
f 17/37/34 37/58/33 38/59/35 18/38/36
f 18/38/36 38/59/35 39/60/37 19/39/38
f 19/39/38 39/60/37 40/61/39 20/40/40
f 20/40/40 40/61/39 21/62/2 1/41/1
f 2/2/41 41/83/42 1/1/43
f 3/3/44 41/83/42 2/2/41
f 4/4/45 41/83/42 3/3/44
f 5/5/46 41/83/42 4/4/45
f 6/6/47 41/83/42 5/5/46
f 7/7/48 41/83/42 6/6/47
f 8/8/49 41/83/42 7/7/48
f 9/9/50 41/83/42 8/8/49
f 10/10/51 41/83/42 9/9/50
f 11/11/52 41/83/42 10/10/51
f 12/12/53 41/83/42 11/11/52
f 13/13/54 41/83/42 12/12/53
f 14/14/55 41/83/42 13/13/54
f 15/15/56 41/83/42 14/14/55
f 16/16/57 41/83/42 15/15/56
f 17/17/58 41/83/42 16/16/57
f 18/18/59 41/83/42 17/17/58
f 19/19/60 41/83/42 18/18/59
f 20/20/61 41/83/42 19/19/60
f 1/1/43 41/83/42 20/20/61
f 21/81/62 42/84/63 22/80/64
f 22/80/64 42/84/63 23/79/65
f 23/79/65 42/84/63 24/78/66
f 24/78/66 42/84/63 25/77/67
f 25/77/67 42/84/63 26/76/68
f 26/76/68 42/84/63 27/75/69
f 27/75/69 42/84/63 28/74/70
f 28/74/70 42/84/63 29/73/71
f 29/73/71 42/84/63 30/72/72
f 30/72/72 42/84/63 31/71/73
f 31/71/73 42/84/63 32/70/74
f 32/70/74 42/84/63 33/69/75
f 33/69/75 42/84/63 34/68/76
f 34/68/76 42/84/63 35/67/77
f 35/67/77 42/84/63 36/66/78
f 36/66/78 42/84/63 37/65/79
f 37/65/79 42/84/63 38/64/80
f 38/64/80 42/84/63 39/63/81
f 39/63/81 42/84/63 40/82/82
f 40/82/82 42/84/63 21/81/62
